<svg id="Layer_1" data-name="Layer 1" xmlns="http://www.w3.org/2000/svg" viewBox="0 0 674.66 674.76"><title>vikings</title><path d="M845.53,380.92l-86.38-86.38a13.91,13.91,0,0,0-19.68,0L568.68,465.33,397.9,294.54a13.92,13.92,0,0,0-19.69,0l-86.38,86.38a13.92,13.92,0,0,0,0,19.69L462.61,571.39h0L568.67,677.47h0L674.76,571.4h0L845.53,400.61A13.92,13.92,0,0,0,845.53,380.92Z" transform="translate(-231.34 -241.9)" style="fill:#ff1414"/><path d="M807.2,340.8" transform="translate(-231.34 -241.9)" style="fill:none;stroke:#000;stroke-miterlimit:10"/><path d="M892.23,504.32H812.67L595.18,721.81h0L568.7,748.29l-244-244H245.11a13.78,13.78,0,0,0-13.77,13.77V640.57a13.77,13.77,0,0,0,13.77,13.76H353.67a13.73,13.73,0,0,1,9.73,4l.47.46a13.78,13.78,0,0,1,0,19.47l-77.35,77.35a13.76,13.76,0,0,0,0,19.47l86.6,86.59a13.76,13.76,0,0,0,19.47,0l77.34-77.34a13.76,13.76,0,0,1,19.47,0l.24.23a13.8,13.8,0,0,1,4,9.74V902.89a13.78,13.78,0,0,0,13.77,13.77H629.9a13.77,13.77,0,0,0,13.77-13.77V794.36a13.78,13.78,0,0,1,4-9.74l.73-.73a13.78,13.78,0,0,1,19.47,0l77.82,77.82a13.76,13.76,0,0,0,19.47,0l86.6-86.59a13.78,13.78,0,0,0,0-19.47L774,677.83a13.78,13.78,0,0,1,9.73-23.51H892.23A13.76,13.76,0,0,0,906,640.57V518.09A13.77,13.77,0,0,0,892.23,504.32Z" transform="translate(-231.34 -241.9)"/><path d="M643.67,319.37V255.73a13.83,13.83,0,0,0-13.83-13.83H507.5a13.83,13.83,0,0,0-13.83,13.83v63.78l74.93,74.93Z" transform="translate(-231.34 -241.9)"/></svg>