<svg id="Layer_1" data-name="Layer 1" xmlns="http://www.w3.org/2000/svg" viewBox="0 0 674.66 674.76"><title>vikings</title><path d="M845.53,380.92l-86.38-86.38a13.91,13.91,0,0,0-19.68,0L568.68,465.33,396.82,293.46a12.4,12.4,0,0,0-17.53,0l-87.46,87.46a13.92,13.92,0,0,0,0,19.69L462.61,571.39h0L568.67,677.47h0L674.76,571.4h0L845.53,400.61A13.92,13.92,0,0,0,845.53,380.92Z" transform="translate(-231.34 -241.9)" style="fill:#ff1414"/><path d="M807.2,340.8" transform="translate(-231.34 -241.9)" style="fill:none;stroke:#000;stroke-miterlimit:10"/><path d="M643.67,319.37v-65a12.44,12.44,0,0,0-12.45-12.44H506.12a12.44,12.44,0,0,0-12.45,12.44v65.17l74.93,74.93Z" transform="translate(-231.34 -241.9)"/><path d="M893.6,504.32H817.8A12.36,12.36,0,0,0,809,508L595.18,721.81h0L568.7,748.29,328.38,508a12.43,12.43,0,0,0-8.77-3.63H243.74a12.4,12.4,0,0,0-12.4,12.4V641.94a12.4,12.4,0,0,0,12.4,12.39h83.85A12.39,12.39,0,0,1,339,662l8.88,21.43a12.38,12.38,0,0,1-2.69,13.51l-59.68,59.68a12.41,12.41,0,0,0,0,17.54l88.53,88.53a12.41,12.41,0,0,0,17.54,0l59.45-59.45a12.39,12.39,0,0,1,13.51-2.69L486,809.42a12.4,12.4,0,0,1,7.65,11.46v83.38a12.4,12.4,0,0,0,12.4,12.4h125.2a12.4,12.4,0,0,0,12.4-12.4V820.83a12.4,12.4,0,0,1,7.65-11.45l22.1-9.15a12.39,12.39,0,0,1,13.51,2.69l59.76,59.76a12.4,12.4,0,0,0,17.53,0l88.54-88.53a12.41,12.41,0,0,0,0-17.54l-60.33-60.32a12.39,12.39,0,0,1-2.69-13.51l8.62-20.8a12.39,12.39,0,0,1,11.45-7.66H893.6A12.4,12.4,0,0,0,906,641.94V516.72A12.4,12.4,0,0,0,893.6,504.32Z" transform="translate(-231.34 -241.9)"/></svg>