<svg id="Layer_1" data-name="Layer 1" xmlns="http://www.w3.org/2000/svg" width="4800" height="144.85" viewBox="0 0 4800 144.85"><title>bluewave</title><path d="M4743,29.87c-24.66,0-45.7-9.61-54.11-23.16-2.78,19.76-28.66,35.25-60.2,35.25-29.28,0-53.7-13.34-59.27-31.07-8.8,15.92-31.4,27.25-57.91,27.25-28.76,0-52.94-13.35-59.85-31.41-5,19.39-27.88,34-55.38,34-26.57,0-48.84-13.7-54.81-32.12-7.84,17.08-31.31,29.49-59.05,29.49-27.28,0-50.42-12-58.64-28.65-6.8,16.58-30.62,28.83-59,28.83-28,0-51.64-12-58.73-28.3-9.36,17.39-33.15,29.75-61,29.75-27.48,0-51-12-60.62-29-5.55,22.19-35,39.12-70.58,39.12-38.06,0-69.16-19.4-71.4-43.87-9.64,19.68-34.21,33.67-63,33.67-26.67,0-49.72-12-60.64-29.39-10.57,11.62-31.84,19.57-56.36,19.57-31.2,0-57.12-12.86-62.46-29.79v.4c-5.13,16.73-28.68,29.39-57,29.39-24.66,0-45.7-9.61-54.11-23.16-2.78,19.76-28.66,35.25-60.2,35.25-29.28,0-53.7-13.34-59.27-31.07-8.8,15.92-31.4,27.25-57.91,27.25-28.76,0-52.94-13.35-59.85-31.41-5,19.39-27.88,34-55.38,34-26.57,0-48.84-13.7-54.81-32.12-7.84,17.08-31.31,29.49-59.05,29.49-27.28,0-50.42-12-58.64-28.65-6.8,16.58-30.62,28.83-59,28.83-28,0-51.64-12-58.73-28.3-9.36,17.39-33.15,29.75-61,29.75-27.48,0-51-12-60.62-29-5.55,22.19-35,39.12-70.58,39.12-38.06,0-69.16-19.4-71.4-43.87-9.64,19.68-34.21,33.67-63,33.67-26.67,0-49.72-12-60.64-29.39-10.57,11.62-31.84,19.57-56.36,19.57-31.2,0-57.12-12.86-62.46-29.79v.4c-5.13,16.73-28.68,29.39-57,29.39-24.66,0-45.7-9.61-54.11-23.16-2.78,19.76-28.66,35.25-60.2,35.25-29.28,0-53.7-13.34-59.27-31.07-8.8,15.92-31.4,27.25-57.91,27.25-28.76,0-52.94-13.35-59.85-31.41-5,19.39-27.88,34-55.38,34-26.57,0-48.84-13.7-54.81-32.12-7.84,17.08-31.31,29.49-59,29.49-27.28,0-50.42-12-58.64-28.65-6.8,16.58-30.62,28.83-59,28.83-28,0-51.63-12-58.73-28.3-9.36,17.39-33.15,29.75-61,29.75-27.48,0-51-12-60.62-29-5.55,22.19-35,39.12-70.58,39.12-38.06,0-69.16-19.4-71.4-43.87-9.64,19.68-34.21,33.67-63,33.67-26.67,0-49.72-12-60.64-29.39-10.57,11.62-31.83,19.57-56.36,19.57-31.2,0-57.12-12.86-62.46-29.79v.4c-5.13,16.73-28.68,29.39-57,29.39-24.66,0-45.7-9.61-54.11-23.16-2.78,19.76-28.66,35.25-60.2,35.25-29.28,0-53.7-13.34-59.27-31.07-8.8,15.92-31.4,27.25-57.91,27.25-28.76,0-52.94-13.35-59.85-31.41-5,19.39-27.88,34-55.38,34-26.57,0-48.84-13.7-54.81-32.12-7.84,17.08-31.31,29.49-59,29.49-27.28,0-50.42-12-58.64-28.65-6.8,16.58-30.62,28.83-59,28.83-28,0-51.64-12-58.73-28.3-9.36,17.39-33.15,29.75-61,29.75-27.48,0-51-12-60.62-29-5.55,22.19-35,39.12-70.58,39.12-38.06,0-69.16-19.4-71.4-43.87-9.64,19.68-34.21,33.67-63,33.67-26.67,0-49.72-12-60.64-29.39C108.25,21.92,87,29.87,62.46,29.87,31.26,29.87,5.34,17,0,.08V144.77H4800V.48C4794.87,17.21,4771.32,29.87,4743,29.87Z" style="fill:#168cd4"/></svg>