<svg id="Layer_1" data-name="Layer 1" xmlns="http://www.w3.org/2000/svg" viewBox="0 0 747.11 438.02"><title>boat</title><rect x="330.3" y="0.5" width="12.5" height="332" style="fill:#754c24;stroke:#000;stroke-miterlimit:10"/><path d="M454.56,238.33c-71.77,1-143.47.23-215.29-.41-10.37-35.65-18.77-72-20.51-109.17C217,92.16,225.39,57,237.41,22.74c71,1.72,141.88.07,212.78-2.12-10.49,35.91-15.8,71.92-14.38,109.54C437.2,167.06,441.88,203.29,454.56,238.33Z" style="fill:#fff;stroke:#000;stroke-miterlimit:10"/><path d="M404.63,85.4c-5.74-6.85-12.53-14.5-18.68-21-1.55-1.64-2.82-1.87-4.64-.24C367,77,351.9,90.17,336.93,102.65,324.77,89.22,312.88,75.11,300.55,62c-1.39-1.48-2.63-1.53-4.23-.19-7.22,6.05-15,13.3-22.38,19.18-1.84,1.47-1.28,3.59-.32,4.86,7.51,10,28.23,34.58,33.44,39.89s1.46,1.47,1.46,1.47c6.77,6.91,20.94,20.68,25,24.48s0-.13.9.84.29,0,.29,0c4.77-5.84,18.93-20.29,22.32-23.38l.86-.78c15.08-14,31.3-25.47,46.27-38.34C406.1,88.39,406.08,87.12,404.63,85.4Z" style="fill:#ff1414"/><path d="M358.3,69.79c.36-4.61,1.45-9.76,1.93-14.18.2-1.87-.4-3-2.48-3.19-9.48-1.1-19.79-2.31-29.33-3.14-2.09-.18-3,.67-3.42,2.7-1,4.82-1.5,10.85-2.12,16,5.12,6.25,10.3,12.37,15.87,18.25C345.09,80.56,351.54,75,358.3,69.79Z"/><path d="M408.06,113.44c-.38-.07.7,0-1.61,0s-11.13.27-14.71.09a4.1,4.1,0,0,0-2.17,1.06c-13.24,10.27-38.28,37.33-46.43,47.18h0c-8.15,9.85-.29.45-6.33,7.91-20.89-18.42-41.84-37.55-60.67-57.49a3,3,0,0,0-2.36-.85c-4.06,0-14.21.29-16.57.31s-.6,0-.6,0c-.7.07-1-.06-1.32,0-1.8.49-2.89,1-2.82,3.11.32,9.65.7,20.18,1.34,29.84.15,2.11,1,2.61,3.32,3,.42.07-1.15,0,1.77,0s14-.16,18.69,0a3.6,3.6,0,0,1,3.16,1.88c.66,1.29,2.27,3.71,2.94,5s.8,2.16-.07,3.33c-3.64,5-8.14,10-11.9,14.8-1.22,1.55-1.21,2.78.36,4.18,7.15,6.4,15.3,13.34,22.54,19.63,1.59,1.38,2.82,1.21,4.24-.15,4.36-4.18,8.94-9.34,13.39-13.53,1.06-1,1.75-1,3.15-.44s3.75,1.58,5.18,2.28a3.36,3.36,0,0,1,2.23,2.88c1.13,6.36,2.15,13.83,3.5,20,.44,2,1.39,2.82,3.45,2.58,9.45-1.11,19.66-2.54,29-3.95,2-.31,2.62-1.35,2.37-3.22-.76-5.71-2.38-12.35-3.2-18.12-.2-1.38.13-1.89,1.4-2.52a37.3,37.3,0,0,1,4.84-1.86,3.08,3.08,0,0,1,3.43.81c5.06,4.33,10.25,10.16,15.34,14.28,1.65,1.33,2.8,1.29,4.15-.21,6.16-6.89,12.69-14.81,18.38-22.06,1.24-1.59,1.09-2.73-.56-4.09-5.14-4.24-11.85-8.5-17.27-12.59a3,3,0,0,1-1.45-3c.07-1.34.7-3.26.81-4.48s1.2-1.64,2.25-1.65c4.1,0,14.56.35,17,.33s.61,0,.61,0c.7-.06,1,.07,1.33,0,1.76-.41,2.94-.9,2.93-2.92-.07-9.26,0-19.3-.11-28.54C411,114.31,410.21,113.83,408.06,113.44Z"/><path d="M123,332.5A52.51,52.51,0,0,1,70.51,280c0-29,15.67-52.51,35-52.51a105,105,0,0,0,0,210H641.59a105,105,0,0,0,0-210c19.33,0,35,23.51,35,52.51a52.5,52.5,0,0,1-52.5,52.51H123Z" style="fill:#754c24;stroke:#000;stroke-miterlimit:10"/><circle cx="188.71" cy="332.5" r="50" style="fill:#fff;stroke:#000;stroke-miterlimit:10"/><circle cx="188.71" cy="332.5" r="45" style="fill:#ff1313;stroke:#000;stroke-miterlimit:10"/><circle cx="188.71" cy="332.5" r="25" style="fill:#fff;stroke:#000;stroke-miterlimit:10"/><circle cx="188.71" cy="332.5" r="18.75" style="fill:#754c24;stroke:#000;stroke-miterlimit:10"/><circle cx="319.51" cy="337.5" r="50" style="fill:#fff;stroke:#000;stroke-miterlimit:10"/><circle cx="319.51" cy="337.5" r="45" style="fill:#ff1313;stroke:#000;stroke-miterlimit:10"/><circle cx="319.51" cy="337.5" r="25" style="fill:#fff;stroke:#000;stroke-miterlimit:10"/><circle cx="319.51" cy="337.5" r="18.75" style="fill:#754c24;stroke:#000;stroke-miterlimit:10"/><circle cx="581.76" cy="337.5" r="50" style="fill:#fff;stroke:#000;stroke-miterlimit:10"/><circle cx="581.76" cy="337.5" r="45" style="fill:#ff1313;stroke:#000;stroke-miterlimit:10"/><circle cx="581.76" cy="337.5" r="25" style="fill:#fff;stroke:#000;stroke-miterlimit:10"/><circle cx="581.76" cy="337.5" r="18.75" style="fill:#754c24;stroke:#000;stroke-miterlimit:10"/><circle cx="450.3" cy="337.5" r="50" style="fill:#fff;stroke:#000;stroke-miterlimit:10"/><circle cx="450.3" cy="337.5" r="45" style="fill:#ff1313;stroke:#000;stroke-miterlimit:10"/><circle cx="450.3" cy="337.5" r="25" style="fill:#fff;stroke:#000;stroke-miterlimit:10"/><circle cx="450.3" cy="337.5" r="18.75" style="fill:#754c24;stroke:#000;stroke-miterlimit:10"/></svg>