<svg id="Layer_1" data-name="Layer 1" xmlns="http://www.w3.org/2000/svg" width="4800" height="299.92" viewBox="0 0 4800 299.92"><title>darkbluewave</title><path d="M4743,30.1c-24.07,0-44.71-9.16-53.5-22.2-5,19.42-27.87,34.1-55.39,34.1-25.68,0-47.34-12.79-54.15-30.29-9,15.61-31.39,26.66-57.57,26.66-27.14,0-50.19-11.89-58.51-28.41-8.88,15.81-31.4,27-57.79,27-28.12,0-51.84-12.75-59.36-30.19-7.11,16.33-30.47,28.32-58.22,28.32-29.14,0-53.45-13.21-59.18-30.8-9,17.87-33.14,30.67-61.52,30.67-29.27,0-54-13.61-62.33-32.36-7.53,15.88-30.8,27.46-58.36,27.46-27,0-49.81-11.09-57.83-26.44-11.56,15.64-36.09,26.44-64.47,26.44-26.84,0-50.2-9.65-62.45-23.92C3853.17,26.46,3828.21,41,3798.85,41c-28.75,0-53.28-13.94-63-33.56-10.54,13.28-36,22.66-65.86,22.66-35.13,0-64.28-13-70-30.1h0V.71c-5.13,16.73-28.68,29.39-57,29.39-24.07,0-44.71-9.16-53.5-22.2-5,19.42-27.87,34.1-55.39,34.1-25.68,0-47.34-12.79-54.15-30.29-9,15.61-31.39,26.66-57.57,26.66-27.14,0-50.19-11.89-58.51-28.41-8.88,15.81-31.4,27-57.79,27-28.12,0-51.84-12.75-59.36-30.19-7.11,16.33-30.47,28.32-58.22,28.32-29.14,0-53.45-13.21-59.18-30.8-9,17.87-33.14,30.67-61.52,30.67-29.27,0-54-13.61-62.33-32.36-7.53,15.88-30.8,27.46-58.36,27.46-27,0-49.81-11.09-57.83-26.44-11.56,15.64-36.09,26.44-64.47,26.44-26.84,0-50.2-9.65-62.45-23.92C2653.17,26.46,2628.21,41,2598.85,41c-28.75,0-53.28-13.94-63-33.56-10.54,13.28-36,22.66-65.86,22.66-35.13,0-64.28-13-70-30.1h0V.71c-5.13,16.73-28.68,29.39-57,29.39-24.07,0-44.71-9.16-53.5-22.2-5,19.42-27.87,34.1-55.39,34.1-25.68,0-47.34-12.79-54.15-30.29-9,15.61-31.39,26.66-57.57,26.66-27.14,0-50.19-11.89-58.51-28.41-8.88,15.81-31.4,27-57.79,27-28.12,0-51.84-12.75-59.36-30.19-7.11,16.33-30.47,28.32-58.22,28.32-29.14,0-53.45-13.21-59.18-30.8-9,17.87-33.14,30.67-61.52,30.67-29.27,0-54-13.61-62.33-32.36-7.53,15.88-30.8,27.46-58.36,27.46-27,0-49.81-11.09-57.83-26.44-11.56,15.64-36.09,26.44-64.47,26.44-26.84,0-50.2-9.65-62.45-23.92C1453.17,26.46,1428.21,41,1398.85,41c-28.75,0-53.28-13.94-63-33.56C1325.35,20.72,1299.84,30.1,1270,30.1c-35.13,0-64.28-13-70-30.1h0V.71c-5.13,16.73-28.68,29.39-57,29.39-24.07,0-44.71-9.16-53.5-22.2-5,19.42-27.87,34.1-55.39,34.1C1008.46,42,986.8,29.21,980,11.71c-9,15.61-31.39,26.66-57.57,26.66-27.14,0-50.19-11.89-58.51-28.41-8.88,15.81-31.4,27-57.79,27C778,37,754.28,24.25,746.76,6.81c-7.11,16.33-30.47,28.32-58.22,28.32-29.14,0-53.45-13.21-59.18-30.8C620.35,22.2,596.22,35,567.84,35c-29.27,0-54-13.61-62.33-32.36C498,18.52,474.71,30.1,447.15,30.1,420.2,30.1,397.34,19,389.32,3.66,377.76,19.3,353.23,30.1,324.85,30.1c-26.84,0-50.2-9.65-62.45-23.92C253.17,26.46,228.21,41,198.85,41c-28.75,0-53.28-13.94-63-33.56C125.35,20.72,99.84,30.1,70,30.1,34.9,30.1,5.75,17.09,0,0H0V299.92H4800V.71C4794.87,17.44,4771.32,30.1,4743,30.1Z" style="fill:#1364bd"/></svg>