<svg id="Layer_1" data-name="Layer 1" xmlns="http://www.w3.org/2000/svg" width="4800" height="145" viewBox="0 0 4800 145"><title>lightbluewave</title><path d="M4743,30.1c-24.2,0-44.93-9.26-53.64-22.41-5.55,19.32-30.61,33.91-60.68,33.91-28,0-51.57-12.6-59.23-29.89-8.23,15.6-28.62,26.66-52.5,26.66-25.93,0-47.76-13-54.35-30.81-7.49,16-30.57,27.57-57.89,27.57s-50.24-11.54-57.81-27.41c-8.45,16.38-31.39,28.13-58.38,28.13-28.21,0-52-12.84-59.43-30.38-7.28,20.75-35.71,36.23-69.71,36.23-30.22,0-56.05-12.24-66.53-29.54C4081.54,25.82,4060.56,35,4036.54,35c-26.83,0-49.86-11.44-59.91-27.79-8.08,15.3-30.89,26.34-57.78,26.34-26.42,0-48.9-10.64-57.35-25.52-9.88,19.31-34.2,33-62.65,33-28.75,0-53.28-13.94-63-33.56-10.54,13.28-36,22.66-65.86,22.66-35.13,0-64.28-13-70-30.1h0V.71c-5.13,16.73-28.68,29.39-57,29.39-24.2,0-44.93-9.26-53.64-22.41-5.55,19.32-30.61,33.91-60.68,33.91-28,0-51.57-12.6-59.23-29.89-8.23,15.6-28.62,26.66-52.5,26.66-25.93,0-47.76-13-54.35-30.81-7.49,16-30.57,27.57-57.89,27.57s-50.24-11.54-57.81-27.41c-8.45,16.38-31.39,28.13-58.38,28.13-28.21,0-52-12.84-59.43-30.38-7.28,20.75-35.71,36.23-69.71,36.23-30.22,0-56-12.24-66.53-29.54C2881.54,25.82,2860.56,35,2836.54,35c-26.83,0-49.86-11.44-59.91-27.79-8.08,15.3-30.89,26.34-57.78,26.34-26.42,0-48.9-10.64-57.35-25.52-9.88,19.31-34.2,33-62.65,33-28.75,0-53.28-13.94-63-33.56-10.54,13.28-36,22.66-65.86,22.66-35.13,0-64.28-13-70-30.1h0V.71c-5.13,16.73-28.68,29.39-57,29.39-24.2,0-44.93-9.26-53.64-22.41-5.55,19.32-30.61,33.91-60.68,33.91-28,0-51.57-12.6-59.23-29.89-8.23,15.6-28.62,26.66-52.5,26.66-25.93,0-47.76-13-54.35-30.81-7.49,16-30.57,27.57-57.89,27.57s-50.24-11.54-57.81-27.41c-8.45,16.38-31.39,28.13-58.38,28.13-28.21,0-52-12.84-59.43-30.38-7.28,20.75-35.71,36.23-69.71,36.23-30.22,0-56.05-12.24-66.53-29.54C1681.54,25.82,1660.56,35,1636.54,35c-26.83,0-49.86-11.44-59.91-27.79-8.08,15.3-30.89,26.34-57.78,26.34-26.42,0-48.9-10.64-57.35-25.52-9.88,19.31-34.2,33-62.65,33-28.75,0-53.28-13.94-63-33.56C1325.35,20.72,1299.84,30.1,1270,30.1c-35.13,0-64.28-13-70-30.1h0V.71c-5.13,16.73-28.68,29.39-57,29.39-24.2,0-44.93-9.26-53.64-22.41-5.55,19.32-30.61,33.91-60.68,33.91-28,0-51.57-12.6-59.23-29.89-8.23,15.6-28.62,26.66-52.5,26.66-25.93,0-47.76-13-54.35-30.81-7.49,16-30.57,27.57-57.89,27.57S754.5,23.59,746.93,7.72c-8.45,16.38-31.39,28.13-58.38,28.13-28.21,0-52-12.84-59.43-30.38-7.28,20.75-35.71,36.23-69.71,36.23-30.22,0-56-12.24-66.53-29.54C481.54,25.82,460.56,35,436.54,35c-26.83,0-49.86-11.44-59.91-27.79-8.08,15.3-30.89,26.34-57.78,26.34C292.43,33.55,270,22.91,261.5,8c-9.88,19.31-34.2,33-62.65,33-28.75,0-53.28-13.94-63-33.56C125.35,20.72,99.84,30.1,70,30.1,34.9,30.1,5.75,17.09,0,0H0V145H4800V.71C4794.87,17.44,4771.32,30.1,4743,30.1Z" style="fill:#39b7dd"/></svg>