<?xml version="1.0" encoding="UTF-8" standalone="no"?>
<!-- Created with Inkscape (http://www.inkscape.org/) -->

<svg
   xmlns:dc="http://purl.org/dc/elements/1.1/"
   xmlns:cc="http://creativecommons.org/ns#"
   xmlns:rdf="http://www.w3.org/1999/02/22-rdf-syntax-ns#"
   xmlns:svg="http://www.w3.org/2000/svg"
   xmlns="http://www.w3.org/2000/svg"
   xmlns:sodipodi="http://sodipodi.sourceforge.net/DTD/sodipodi-0.dtd"
   xmlns:inkscape="http://www.inkscape.org/namespaces/inkscape"
   width="309.11798"
   height="190.12131"
   viewBox="0 0 309.11799 190.12131"
   id="svg3704"
   version="1.1"
   inkscape:version="0.91 r13725"
   sodipodi:docname="ace hardware.svg">
  <defs
     id="defs3706" />
  <sodipodi:namedview
     id="base"
     pagecolor="#ffffff"
     bordercolor="#666666"
     borderopacity="1.0"
     inkscape:pageopacity="0.0"
     inkscape:pageshadow="2"
     inkscape:zoom="2.8864354"
     inkscape:cx="153.559"
     inkscape:cy="94.060654"
     inkscape:document-units="px"
     inkscape:current-layer="layer1"
     showgrid="false"
     fit-margin-top="0"
     fit-margin-left="0"
     fit-margin-right="0"
     fit-margin-bottom="0"
     units="px"
     inkscape:window-width="1280"
     inkscape:window-height="744"
     inkscape:window-x="-4"
     inkscape:window-y="-4"
     inkscape:window-maximized="1" />
  <metadata
     id="metadata3709">
    <rdf:RDF>
      <cc:Work
         rdf:about="">
        <dc:format>image/svg+xml</dc:format>
        <dc:type
           rdf:resource="http://purl.org/dc/dcmitype/StillImage" />
        <dc:title></dc:title>
      </cc:Work>
    </rdf:RDF>
  </metadata>
  <g
     inkscape:label="Layer 1"
     inkscape:groupmode="layer"
     id="layer1"
     transform="translate(-377.86957,-530.58721)">
    <g
       id="g3713"
       transform="translate(378.86956,531.58721)">
	<path
   id="path3715"
   d="m 6.667,186.924 c 0.065,-0.248 1.854,-9.915 3.976,-21.479 l 3.858,-21.028 5.097,0 c 2.804,0 5.098,0.068 5.098,0.156 0,0.088 -0.678,3.805 -1.507,8.259 -0.83,4.452 -1.509,8.171 -1.509,8.261 0,0.089 3.469,0.134 7.708,0.096 l 7.706,-0.068 1.532,-8.288 1.531,-8.292 5.082,-0.068 c 2.796,-0.038 5.083,0.027 5.083,0.146 0,0.2 -7.376,40.573 -7.686,42.067 l -0.143,0.689 -5.135,0 -5.135,0 0.133,-0.565 c 0.258,-1.09 3.142,-16.884 3.142,-17.2 0,-0.255 -1.604,-0.32 -7.657,-0.32 l -7.658,0 -0.127,0.565 c -0.249,1.115 -3.149,17.02 -3.149,17.267 0,0.164 -1.854,0.254 -5.179,0.254 -4.855,-0.002 -5.172,-0.031 -5.061,-0.452 z"
   inkscape:connector-curvature="0"
   style="fill:#010202" />

	<path
   id="path3717"
   d="m 6.938,187.289 c -0.311,-0.051 -0.349,-0.104 -0.292,-0.395 0.037,-0.185 1.806,-9.819 3.934,-21.408 l 3.869,-21.069 5.168,0 5.167,0 -0.114,0.594 c -0.884,4.619 -2.947,16.063 -2.902,16.109 0.103,0.111 9.278,0.137 12.344,0.034 l 2.946,-0.095 1.538,-8.291 c 0.845,-4.56 1.54,-8.305 1.542,-8.324 0.005,-0.017 2.325,-0.027 5.159,-0.027 l 5.153,0 -0.067,0.28 c -0.036,0.155 -1.789,9.694 -3.894,21.198 -2.105,11.501 -3.858,21.04 -3.895,21.195 l -0.068,0.283 -5.147,0 c -2.832,0 -5.148,-0.014 -5.148,-0.033 0,-0.018 0.734,-4.013 1.632,-8.883 1.119,-6.083 1.589,-8.888 1.5,-8.979 -0.169,-0.17 -15.19,-0.259 -15.19,-0.093 0,0.067 -0.506,2.854 -1.125,6.195 -0.618,3.343 -1.351,7.312 -1.626,8.823 -0.277,1.514 -0.539,2.785 -0.581,2.83 -0.095,0.09 -9.37,0.145 -9.903,0.056 z"
   inkscape:connector-curvature="0"
   style="fill:#010202" />

	<path
   id="path3719"
   d="m 59.673,187.997 c -4.032,-0.527 -7.225,-2.931 -8.257,-6.214 -0.359,-1.147 -0.381,-3.47 -0.042,-4.708 0.903,-3.291 3.702,-5.914 7.885,-7.389 3.139,-1.11 8.508,-1.981 13.765,-2.238 1.16,-0.055 1.834,-0.138 1.917,-0.238 0.071,-0.083 0.248,-0.624 0.393,-1.201 0.843,-3.334 -0.89,-5.393 -4.531,-5.388 -2.797,0.006 -4.78,1.017 -6.151,3.137 -0.276,0.424 -0.564,0.965 -0.643,1.205 -0.083,0.255 -0.225,0.431 -0.345,0.431 -0.439,0 -8.886,-0.903 -8.939,-0.958 -0.03,-0.028 0.264,-0.688 0.657,-1.466 2.305,-4.562 6.309,-7.129 12.392,-7.949 1.774,-0.239 5.619,-0.269 7.357,-0.056 5.159,0.626 8.735,2.959 9.873,6.428 0.265,0.809 0.3,1.15 0.292,2.743 -0.008,2.04 -0.151,3.007 -1.68,11.235 -1.266,6.813 -1.323,7.223 -1.324,9.71 l -0.001,2.169 -4.795,0 -4.795,0.002 -0.091,-0.85 c -0.062,-0.567 -0.023,-1.394 0.118,-2.481 0.287,-2.253 0.283,-2.269 -0.328,-1.254 -0.652,1.077 -2.659,3.11 -3.637,3.683 -2.434,1.423 -5.938,2.061 -9.09,1.647 z m 8.08,-6.037 c 1.033,-0.354 1.748,-0.816 2.707,-1.736 1.039,-0.998 1.807,-2.123 2.407,-3.527 0.436,-1.015 1.092,-3.293 1.258,-4.363 l 0.083,-0.535 -0.734,0.004 c -1.985,0.006 -5.031,0.488 -6.85,1.088 -2.932,0.966 -4.48,2.427 -4.882,4.607 -0.314,1.702 0.366,3.397 1.692,4.219 1.064,0.655 2.831,0.754 4.319,0.243 z"
   inkscape:connector-curvature="0"
   style="fill:#010202" />

	<path
   id="path3721"
   d="m 90.113,186.715 c 0.058,-0.294 1.353,-7.349 2.874,-15.67 1.522,-8.326 2.795,-15.266 2.831,-15.42 l 0.064,-0.283 4.833,0 c 4.147,0 4.834,0.027 4.834,0.183 0,0.101 -0.283,1.722 -0.628,3.597 -0.346,1.883 -0.627,3.453 -0.627,3.493 0,0.044 0.368,-0.592 0.817,-1.41 0.982,-1.786 1.771,-2.915 2.699,-3.858 1.612,-1.644 3.023,-2.198 6.191,-2.432 l 0.854,-0.066 -0.067,0.404 c -0.036,0.223 -0.267,2.185 -0.511,4.359 -0.243,2.177 -0.469,4.078 -0.501,4.224 -0.053,0.242 -0.168,0.271 -1.348,0.338 -3.082,0.172 -5.242,1.378 -6.974,3.89 -1.666,2.417 -2.169,4.088 -3.61,11.962 -0.454,2.488 -0.937,5.105 -1.073,5.815 -0.136,0.713 -0.247,1.321 -0.247,1.353 0,0.03 -2.368,0.059 -5.261,0.059 l -5.26,0 0.11,-0.538 z"
   inkscape:connector-curvature="0"
   style="fill:#010202" />

	<path
   id="path3723"
   d="m 124.639,187.82 c -2.066,-0.339 -3.656,-1.114 -5.108,-2.495 -2.578,-2.449 -3.803,-5.857 -3.804,-10.579 -0.001,-4.014 0.817,-7.536 2.584,-11.098 3.249,-6.557 7.762,-9.442 13.955,-8.918 2.16,0.182 3.797,0.872 5.06,2.133 0.717,0.72 1.554,2.126 1.895,3.189 0.136,0.427 0.174,0.463 0.258,0.253 0.054,-0.14 0.738,-3.77 1.52,-8.072 l 1.42,-7.816 5.052,0 5.053,0 -0.082,0.405 c -0.044,0.228 -1.813,9.849 -3.932,21.388 l -3.85,20.976 -4.732,0.032 c -2.602,0.021 -4.733,0.018 -4.733,-0.006 0,-0.025 0.196,-1.109 0.436,-2.414 0.239,-1.304 0.417,-2.391 0.396,-2.411 -0.022,-0.023 -0.185,0.173 -0.36,0.433 -1.618,2.395 -4.063,4.248 -6.438,4.874 -1.062,0.278 -3.287,0.341 -4.59,0.126 z m 7.097,-6.543 c 0.977,-0.254 1.85,-0.736 2.661,-1.481 1.558,-1.418 2.398,-3.628 3.172,-8.318 0.584,-3.551 0.692,-4.744 0.525,-5.838 -0.283,-1.837 -1.221,-3.246 -2.679,-4.022 -0.658,-0.352 -0.951,-0.427 -1.802,-0.472 -1.844,-0.097 -3.273,0.606 -4.386,2.169 -1.851,2.592 -3.205,8.294 -3.051,12.856 0.049,1.466 0.104,1.833 0.373,2.492 0.366,0.897 0.706,1.347 1.464,1.932 1.067,0.821 2.315,1.048 3.723,0.682 z"
   inkscape:connector-curvature="0"
   style="fill:#010202" />

	<path
   id="path3725"
   d="m 159.976,187.142 c 0,-0.103 -4.949,-30.738 -5.08,-31.453 l -0.063,-0.347 5.195,0 c 4.842,0 5.196,0.016 5.252,0.221 0.027,0.122 0.644,4.587 1.36,9.923 0.722,5.339 1.337,9.704 1.376,9.704 0.039,0 1.938,-4.452 4.221,-9.892 l 4.146,-9.893 4.668,-0.031 4.668,-0.032 0.062,0.283 c 0.033,0.154 0.489,4.495 1.011,9.642 0.524,5.146 0.982,9.493 1.02,9.659 0.035,0.164 0.107,0.25 0.163,0.188 0.05,-0.063 2.209,-4.534 4.797,-9.939 l 4.701,-9.827 3.856,0 3.854,-0.006 -1.549,3.172 c -0.853,1.745 -4.411,8.923 -7.908,15.952 l -6.358,12.785 -4.52,0 -4.518,0 -0.063,-0.284 c -0.069,-0.316 -2.456,-19.962 -2.456,-20.212 0,-0.097 -0.041,-0.111 -0.11,-0.04 -0.062,0.067 -2.074,4.715 -4.473,10.326 l -4.357,10.21 -4.447,0 c -2.446,0 -4.448,-0.05 -4.448,-0.109 z"
   inkscape:connector-curvature="0"
   style="fill:#010202" />

	<path
   id="path3727"
   d="m 212.672,188.051 c -2.981,-0.456 -4.896,-1.349 -6.622,-3.093 -1.565,-1.583 -2.32,-3.67 -2.193,-6.063 0.256,-4.819 3.887,-8.244 10.51,-9.922 2.988,-0.758 9.398,-1.571 12.39,-1.571 0.739,0 0.806,-0.026 0.966,-0.349 0.551,-1.101 0.691,-3.053 0.295,-4.074 -0.338,-0.877 -1.383,-1.781 -2.426,-2.106 -1.01,-0.313 -2.869,-0.342 -4.053,-0.063 -2.029,0.481 -3.564,1.687 -4.475,3.513 -0.275,0.555 -0.51,1.027 -0.521,1.049 l -9.068,-0.927 c -0.108,-0.111 0.741,-1.85 1.404,-2.865 1.94,-2.974 4.916,-5.039 8.652,-5.991 4.318,-1.107 10.036,-1.069 13.689,0.08 3.658,1.153 6.023,3.469 6.715,6.568 0.394,1.775 0.183,3.463 -1.755,14.021 -1.11,6.052 -1.246,7.122 -1.19,9.332 l 0.039,1.661 -4.791,0 c -4.252,0 -4.797,-0.026 -4.866,-0.201 -0.138,-0.36 -0.081,-2.159 0.12,-3.577 0.104,-0.769 0.174,-1.457 0.149,-1.528 -0.022,-0.073 -0.267,0.261 -0.538,0.735 -0.66,1.146 -2.496,2.993 -3.647,3.671 -1.065,0.627 -2.543,1.183 -3.892,1.461 -0.969,0.199 -4.131,0.354 -4.892,0.239 z m 7.634,-6.035 c 1.891,-0.556 3.786,-2.31 4.924,-4.561 0.66,-1.307 1.332,-3.443 1.63,-5.188 l 0.081,-0.469 -0.684,0 c -1.966,0 -5.324,0.535 -7.061,1.125 -2.244,0.766 -3.645,1.846 -4.364,3.366 -0.36,0.758 -0.399,0.963 -0.399,1.98 0.005,1.27 0.23,1.936 0.93,2.729 1.095,1.251 2.889,1.62 4.943,1.018 z"
   inkscape:connector-curvature="0"
   style="fill:#010202" />

	<path
   id="path3729"
   d="m 242.812,186.78 c 0.049,-0.262 1.367,-7.427 2.931,-15.922 l 2.837,-15.452 4.862,-0.031 c 2.677,-0.019 4.868,0 4.868,0.039 0,0.044 -0.281,1.62 -0.63,3.509 -0.347,1.887 -0.626,3.508 -0.624,3.604 0,0.089 0.303,-0.405 0.672,-1.105 0.993,-1.888 1.782,-3.009 2.906,-4.131 1.107,-1.105 2.063,-1.685 3.294,-2.004 0.755,-0.193 3.431,-0.47 3.546,-0.362 0.053,0.046 -0.797,7.879 -0.953,8.783 l -0.066,0.393 -1.344,0.077 c -1.515,0.087 -2.503,0.319 -3.597,0.844 -2.048,0.979 -4.073,3.539 -5.041,6.383 -0.644,1.88 -1.079,4.002 -3.031,14.748 l -0.2,1.101 -5.26,0 -5.259,0 0.089,-0.474 z"
   inkscape:connector-curvature="0"
   style="fill:#010202" />

	<path
   id="path3731"
   d="m 281.859,188.051 c -2.376,-0.262 -4.229,-0.797 -6.09,-1.761 -4.835,-2.507 -7.539,-7.142 -7.539,-12.924 0,-5.279 2.144,-10.191 6.112,-14.013 3.287,-3.165 7.223,-4.645 12.355,-4.657 4.945,-0.01 8.379,1.278 11.11,4.176 2.065,2.187 3.304,4.85 3.726,8.007 0.139,1.053 0.088,4.081 -0.096,5.454 l -0.076,0.595 -11.403,0 -11.402,0 -0.095,1.095 c -0.119,1.448 0,2.95 0.309,3.836 0.857,2.475 3.354,3.936 6.299,3.691 2.63,-0.224 4.578,-1.578 5.895,-4.107 l 0.494,-0.95 4.211,0.644 c 2.314,0.35 4.232,0.666 4.266,0.698 0.117,0.118 -0.832,1.966 -1.609,3.126 -0.506,0.759 -1.26,1.649 -2.055,2.42 -2.492,2.416 -5.26,3.813 -8.818,4.445 -1.057,0.185 -4.617,0.329 -5.594,0.225 z m 10.287,-20.68 c 0.15,-0.56 0.078,-2.809 -0.105,-3.436 -0.621,-2.086 -2.67,-3.442 -5.205,-3.442 -1.918,0 -3.393,0.545 -4.664,1.722 -1.216,1.127 -2.027,2.575 -2.678,4.779 l -0.192,0.661 6.384,0 6.384,0 0.076,-0.284 z"
   inkscape:connector-curvature="0"
   style="fill:#010202" />

	<path
   id="path3733"
   d="m 107.704,75.175 c -0.043,2.799 -1.105,7.696 0.813,16.679 0,0 5.848,43.271 49.909,44.125 12.672,-0.867 18.02,-3.278 24.542,-6.47 24.479,-11.98 28.55,-38.823 28.55,-38.823 l -23.027,0 c -13.322,30.07 -39.204,19.979 -39.204,19.979 L 163.85,42.248 c 27.977,0.766 29.02,27.123 29.02,27.123 l 23.41,0 c 0,0 1.646,-27.689 -25.34,-44.115 -5.53,-3.363 -14.646,-5.73 -23.569,-5.939 0,-0.001 -49.834,-3.127 -59.667,55.858"
   inkscape:connector-curvature="0"
   style="fill:#e73137" />

	<polyline
   id="polyline3735"
   points="307.118,26.743 302.556,48.06 263.347,48.06 258.779,69.376 298.079,69.376 293.609,90.692    254.308,90.692 249.835,112.006 289.138,112.006 284.57,133.226 205.396,133.226 227.947,26.743 307.118,26.743  "
   style="fill:#e73137" />

	<polyline
   id="polyline3737"
   points="58.045,133.413 45.295,65.468 0,133.413 58.045,133.413  "
   style="fill:#e73137" />

	<polyline
   id="polyline3739"
   points="113.526,133.413 70.228,133.413 55.004,50.812 88.88,0 113.526,133.413  "
   style="fill:#e73137" />

	<path
   id="path3741"
   d="m 288.644,127.889 c 0,-3.151 2.555,-5.478 5.58,-5.478 2.986,0 5.541,2.326 5.541,5.478 0,3.18 -2.555,5.502 -5.541,5.502 -3.026,0 -5.58,-2.322 -5.58,-5.502 m 5.58,4.586 c 2.479,0 4.439,-1.944 4.439,-4.586 0,-2.604 -1.96,-4.562 -4.439,-4.562 -2.517,0 -4.477,1.958 -4.477,4.562 0,2.642 1.96,4.586 4.477,4.586 z m -1.166,-1.406 -0.959,0 0,-6.331 2.408,0 c 1.502,0 2.24,0.548 2.24,1.802 0,1.132 -0.714,1.621 -1.64,1.737 l 1.799,2.792 -1.075,0 -1.669,-2.741 -1.104,0 0,2.741 z m 1.148,-3.56 c 0.813,0 1.539,-0.055 1.539,-1.034 0,-0.78 -0.713,-0.925 -1.381,-0.925 l -1.307,0 0,1.959 1.149,0 z"
   inkscape:connector-curvature="0"
   style="fill:#e73137" />

</g>
  </g>
</svg>
