<?xml version="1.0" standalone="no"?>
<!DOCTYPE svg PUBLIC "-//W3C//DTD SVG 20010904//EN"
 "http://www.w3.org/TR/2001/REC-SVG-20010904/DTD/svg10.dtd">
<svg version="1.0" xmlns="http://www.w3.org/2000/svg"
 width="1469.000000pt" height="1050.000000pt" viewBox="0 0 1469.000000 1050.000000"
 preserveAspectRatio="xMidYMid meet">

<g transform="translate(0.000000,1050.000000) scale(0.100000,-0.100000)"
fill="#000000" stroke="none">
<path d="M1822 10312 c-20 -14 -65 -174 -51 -183 7 -4 66 -8 133 -8 342 -4
521 -70 589 -218 17 -39 22 -71 25 -178 7 -232 -22 -380 -193 -965 -31 -107
-99 -341 -151 -520 -52 -179 -112 -386 -134 -460 -49 -168 -520 -1791 -665
-2290 -18 -63 -63 -218 -100 -345 -245 -848 -329 -1058 -485 -1215 -137 -139
-290 -186 -625 -193 l-119 -2 -23 -80 c-12 -44 -23 -86 -23 -92 0 -21 3051
-18 3330 2 1056 77 1895 362 2595 884 629 468 1106 1135 1353 1891 128 393
186 744 186 1125 0 878 -279 1594 -809 2083 -408 377 -934 606 -1629 712 -345
52 -366 52 -1826 57 -782 2 -1371 0 -1378 -5z m2743 -386 c345 -42 606 -113
837 -226 569 -281 881 -777 984 -1560 25 -195 30 -657 10 -910 -41 -497 -119
-866 -268 -1265 -472 -1259 -1515 -1976 -3020 -2076 -239 -15 -806 -7 -906 15
-207 44 -292 140 -277 313 11 137 105 482 456 1688 28 94 85 292 128 440 43
149 197 675 341 1170 144 495 284 974 310 1065 26 91 82 284 125 430 42 146
103 355 135 465 97 332 132 450 135 453 1 2 79 7 171 12 228 12 691 4 839 -14z"/>
<path d="M7826 6918 c-3 -7 -9 -28 -15 -46 -13 -41 -16 -39 119 -45 116 -4
176 -24 220 -71 23 -25 25 -37 28 -127 3 -68 -1 -124 -13 -177 -15 -69 -161
-586 -235 -832 -15 -52 -56 -192 -90 -310 -34 -118 -84 -289 -110 -380 -27
-91 -90 -307 -140 -480 -120 -412 -145 -489 -190 -585 -72 -152 -145 -199
-339 -217 -116 -11 -119 -12 -124 -37 -3 -14 -9 -34 -12 -43 -7 -17 29 -18
668 -18 l675 0 5 28 c3 15 8 34 12 43 5 13 -11 17 -102 27 -59 6 -130 19 -156
28 -94 32 -146 116 -133 214 10 74 46 207 194 725 78 270 228 796 335 1170
108 374 207 710 220 747 66 173 175 275 317 295 77 11 295 -1 356 -19 108 -34
188 -91 259 -188 l35 -48 -44 -158 c-44 -162 -408 -1453 -562 -1999 -195 -687
-229 -739 -512 -767 l-122 -12 -10 -36 c-5 -19 -10 -38 -10 -42 0 -5 245 -8
544 -8 l544 0 6 28 c4 15 9 34 12 43 4 14 -9 18 -83 24 -158 13 -244 46 -281
108 -47 78 -39 144 73 537 131 463 191 672 340 1205 81 286 166 587 189 670
l43 150 76 -195 c42 -107 140 -357 217 -555 77 -198 194 -497 260 -665 66
-168 218 -557 338 -865 l219 -560 51 -3 c41 -2 51 0 55 15 28 97 297 1046 398
1398 70 248 196 689 278 980 83 292 158 555 167 585 47 161 139 292 240 343
68 34 96 39 196 38 96 0 99 1 113 67 l7 32 -550 0 -549 0 -11 -39 c-17 -56
-16 -64 13 -59 54 11 208 -11 260 -36 75 -37 90 -69 89 -186 -2 -126 -10 -156
-180 -747 -81 -279 -150 -521 -154 -538 -5 -16 -42 -147 -84 -290 -41 -143
-106 -367 -143 -497 -37 -131 -70 -238 -73 -238 -6 0 -7 3 -295 745 -277 710
-397 1019 -675 1728 l-61 157 -1055 0 c-835 0 -1055 -3 -1058 -12z"/>
<path d="M12361 6907 c-5 -13 -11 -34 -13 -47 -3 -23 -1 -24 77 -27 160 -6
230 -30 272 -93 19 -27 23 -46 23 -115 0 -123 -18 -202 -161 -692 -214 -740
-278 -958 -340 -1173 -33 -113 -78 -268 -100 -345 -76 -263 -151 -490 -186
-560 -19 -38 -53 -89 -75 -112 -59 -60 -118 -82 -258 -95 -115 -11 -119 -12
-125 -37 -3 -14 -8 -34 -11 -43 -5 -17 31 -18 666 -18 l670 0 9 23 c26 69 30
64 -64 72 -176 14 -261 51 -296 128 -38 85 -38 86 222 994 569 1992 520 1838
620 1947 30 33 73 66 107 83 50 25 71 28 170 32 124 4 118 0 136 74 l6 27
-670 0 -670 0 -9 -23z"/>
<path d="M5740 3463 c-173 -28 -354 -97 -493 -186 -418 -270 -661 -847 -561
-1334 114 -565 509 -918 1104 -988 336 -40 661 11 958 151 l92 43 0 388 c0
213 5 429 9 480 16 160 57 209 191 227 l80 10 0 33 0 33 -485 0 -485 0 0 -34
0 -33 83 -5 c107 -7 163 -25 202 -64 54 -54 57 -79 62 -545 l5 -426 -28 -20
c-107 -75 -351 -131 -516 -119 -329 25 -585 205 -742 523 -78 158 -119 318
-135 527 -39 512 161 963 502 1131 130 64 223 85 379 85 138 0 235 -16 330
-54 208 -84 360 -256 449 -509 18 -51 29 -69 46 -73 36 -9 56 3 50 29 -3 12
-18 183 -33 380 l-28 357 -38 0 c-36 0 -38 -2 -38 -30 0 -46 -26 -99 -55 -112
-22 -10 -49 -4 -208 50 -239 80 -309 92 -511 91 -88 -1 -172 -4 -186 -6z"/>
<path d="M7212 2582 c-228 -94 -233 -97 -227 -122 10 -40 18 -42 87 -25 58 15
68 15 101 2 21 -9 43 -29 54 -49 17 -31 18 -72 18 -618 l0 -585 -23 -36 c-28
-46 -78 -70 -159 -77 l-63 -5 0 -33 0 -34 431 0 430 0 -3 33 -3 32 -73 6 c-97
9 -160 41 -190 96 -34 63 -42 168 -42 601 l0 383 29 57 c36 72 114 175 151
202 44 32 77 25 159 -30 41 -27 91 -55 112 -60 128 -35 239 105 185 233 -16
39 -74 92 -123 112 -19 8 -63 15 -98 15 -120 0 -235 -83 -347 -250 -29 -44
-56 -79 -59 -80 -4 0 -6 74 -5 165 l1 165 -55 -1 c-45 -1 -97 -18 -288 -97z"/>
<path d="M8699 2661 c-272 -73 -480 -292 -570 -602 -26 -91 -37 -322 -20 -422
55 -315 252 -559 529 -654 69 -24 92 -26 227 -27 169 -1 240 15 365 80 233
122 393 378 436 697 59 439 -207 848 -606 932 -97 20 -276 18 -361 -4z m291
-143 c174 -81 290 -292 335 -608 38 -269 2 -529 -94 -677 -113 -174 -354 -203
-531 -63 -184 145 -306 588 -260 937 20 150 64 256 138 335 79 84 141 108 267
105 72 -2 101 -8 145 -29z"/>
<path d="M11438 2583 c-245 -100 -255 -106 -225 -146 11 -16 16 -16 78 -1 84
21 126 7 155 -52 18 -38 19 -72 19 -1004 0 -918 -1 -967 -18 -1002 -25 -49
-80 -75 -179 -83 l-78 -7 0 -34 0 -34 433 2 432 3 0 30 0 30 -94 11 c-106 13
-135 29 -166 90 -19 36 -20 62 -23 368 l-3 329 23 -16 c112 -81 188 -107 328
-114 334 -15 590 171 716 522 45 128 66 254 66 400 0 147 -13 231 -56 357 -44
129 -86 197 -177 291 -82 82 -151 122 -258 147 -70 17 -222 8 -281 -15 -113
-46 -218 -137 -308 -269 l-47 -68 -3 181 -2 181 -48 -1 c-36 0 -104 -23 -284
-96z m857 -194 c116 -56 210 -197 262 -394 23 -89 26 -119 27 -275 0 -150 -3
-187 -22 -260 -47 -180 -132 -304 -247 -360 -44 -22 -63 -25 -165 -25 -110 0
-118 1 -182 33 -105 51 -169 139 -188 258 -6 33 -10 229 -10 437 l0 379 51 59
c62 71 141 132 206 159 69 29 198 24 268 -11z"/>
<path d="M9602 2598 l3 -33 74 -7 c116 -12 163 -50 181 -147 6 -31 10 -256 10
-540 0 -542 3 -572 65 -698 83 -168 230 -244 422 -216 127 18 224 74 366 212
l117 114 0 -167 0 -166 44 0 c31 0 104 25 267 91 123 50 234 95 246 100 20 7
21 11 10 39 -11 28 -15 31 -42 25 -16 -3 -56 -8 -88 -12 -48 -4 -61 -2 -79 13
-54 48 -53 36 -56 757 l-3 667 -284 0 -285 0 0 -34 0 -33 75 -6 c90 -7 144
-34 171 -86 18 -34 19 -70 22 -552 l3 -516 -58 -53 c-123 -113 -247 -175 -348
-175 -82 0 -146 27 -193 81 -72 81 -72 81 -72 767 l0 607 -286 0 -285 0 3 -32z"/>
</g>
</svg>
