<?xml version="1.0" encoding="utf-8"?>
<!-- Generator: Adobe Illustrator 22.1.0, SVG Export Plug-In . SVG Version: 6.00 Build 0)  -->
<svg version="1.1" id="Layer_1" xmlns="http://www.w3.org/2000/svg" xmlns:xlink="http://www.w3.org/1999/xlink" x="0px" y="0px"
	 viewBox="0 0 616.6 135.1" style="enable-background:new 0 0 616.6 135.1;" xml:space="preserve">
<style type="text/css">
	.st0{fill:#D6001C;}
</style>
<g>
	<path class="st0" d="M43.7,41.4c0,3.4-0.3,6-0.9,7.7c-0.6,1.7-1.4,2.9-2.5,3.7c-1.2,0.8-2.8,1.3-4.8,1.5c-2.1,0.2-4.7,0.3-7.8,0.3
		H9v-27h18.7c3,0,5.7,0.1,7.8,0.3c2,0.2,3.6,0.7,4.7,1.5c1.1,0.8,2,2.1,2.6,3.8c0.6,1.8,0.9,4.3,0.9,7.6L43.7,41.4L43.7,41.4z
		 M51.9,51.9c0.8-2.7,1.3-6.4,1.3-10.8c0-4.4-0.4-7.9-1.3-10.7c-0.9-2.9-2.4-5.3-4.5-6.9c-2-1.5-4.7-2.6-8.1-3.1
		c-3.2-0.5-7.2-0.7-11.9-0.7H-0.2l0,65.3H9l0-22.7h18.5c4.7,0,8.7-0.2,11.9-0.7c3.3-0.5,6-1.5,8-3C49.5,57,51,54.8,51.9,51.9
		 M68.8,47.5c0.3-4.9,1-8.8,2.1-11.6c1.2-2.9,2.7-5.1,4.5-6.5c1.8-1.4,4-2.3,6.4-2.6c2.6-0.4,5.4-0.5,8.3-0.5c3.4,0,6.4,0.3,9,0.8
		c2.4,0.5,5.4,1.5,7,3c1.7,1.5,3,3.8,3.9,6.7c0.9,2.7,1.5,6.4,1.7,10.8L68.8,47.5L68.8,47.5z M68.7,55h51.5v-3.4
		c0-6.6-0.2-12-1.5-16.3c-1.4-4.3-3.4-7.7-6-10.2c-2.6-2.5-5.9-4.3-9.7-5.2c-3.7-0.9-8-1.4-12.8-1.4c-4.4,0-8.6,0.4-12.3,1.3
		c-3.8,0.9-7.1,2.6-9.9,5.2c-2.8,2.5-5,6.1-6.5,10.7c-1.5,4.5-2.3,10.4-2.3,17.5c0,1.4,0,2.7,0.1,3.9c0.1,2,0.5,5.3,1.4,8.9l0.6,2.2
		c0.2,0.5,0.3,1,0.5,1.5c1.6,4.5,3.8,8,6.7,10.4c2.9,2.5,6.4,4.1,10.5,5c3.9,0.8,8.4,1.2,13.3,1.2c4.6,0,9.1-0.4,13.1-1.2
		c1.6-0.3,3-0.7,4.4-1c1.7-0.5,5.1-1.6,7-2.9l-4.2-6.7l-0.8,0.3c-0.9,0.3-2.1,0.7-3.5,1.2c-1.4,0.4-3,0.9-4.6,1.3
		c-1.7,0.4-3.5,0.7-5.4,1c-1.9,0.3-3.8,0.4-5.7,0.4c-2.6,0-5-0.1-7.3-0.4c-3.4-0.5-7.5-1.7-10.5-4.3c-0.3-0.3-0.6-0.6-0.9-0.9l0,0
		c-1.7-1.7-2.9-4.5-3.6-6.8L70.1,66c-0.1-0.2-0.1-0.4-0.1-0.5c-0.2-0.8-0.4-1.4-0.5-1.9c0-0.1,0-0.1,0-0.2c-0.1-0.5-0.1-0.7-0.1-0.7
		l0,0c-0.1-0.6-0.2-1.2-0.3-1.7C68.9,59.2,68.7,57.1,68.7,55 M162.1,54.1c-2.1,0.2-4.7,0.3-7.7,0.3h-17.5v-27h17.5
		c3,0,5.6,0.1,7.7,0.3c2,0.2,3.6,0.7,4.7,1.5c1.1,0.8,2,2,2.5,3.8c0.6,1.9,0.9,4.5,0.9,8c0,3.3-0.3,5.9-0.9,7.8
		c-0.5,1.7-1.4,3-2.5,3.8C165.7,53.4,164.1,53.9,162.1,54.1 M185.5,85.1L185.5,85.1l0-7.5c0,0-2.3,0.1-3.4,0.1c-1-0.1-2-0.2-3-0.4
		c-0.6-0.1-1.1-0.3-1.6-0.6c-0.2-0.1-0.5-0.3-0.7-0.4c-0.4-0.3-0.7-0.6-1.1-0.9c-0.6-0.5-1.1-1-1.6-1.6c-0.8-0.9-1.6-1.8-2.3-2.7
		c-0.2-0.3-0.4-0.6-0.6-0.8c-0.8-1.2-5.4-8.3-5.6-8.6c0,0,0,0,0,0c0,0,3-0.3,5.9-1.6c2-0.9,3.7-2.2,4.9-3.8c1.2-1.6,2.1-3.7,2.6-6.2
		c0.5-2.4,0.8-5.4,0.8-8.9c0-4.4-0.4-8-1.3-10.7c-0.9-2.8-2.4-5.1-4.4-6.7c-2-1.5-4.7-2.6-8-3.1c-3.2-0.5-7.2-0.7-11.8-0.7h-26.4
		v65.3h9.2V62.2h18.5c0.3,0.4,8.4,12.7,9.3,13.8c0.2,0.2,2.1,2.6,2.9,3.4c1,1.1,2.1,2.1,3.2,2.9c1,0.7,2,1.3,3.1,1.8
		c0.3,0.1,0.6,0.3,1,0.4c0.9,0.3,1.8,0.4,2.8,0.5c1.2,0.1,2.4,0.1,3.6,0.1c0.9,0,2.8,0,3.7,0C185.1,85.1,185.3,85.1,185.5,85.1
		 M249.3,85.2c1.4,0,2.9-0.1,4.3-0.1l0-7.4c-1.7,0.1-3.3,0.1-5-0.1c-1-0.1-1.9-0.4-2.8-0.8c-2.2-1.1-3.9-2.9-5.5-4.8
		c-0.4-0.5-0.9-1-1.3-1.6c-0.2-0.2-13.5-18-13.7-18.2c0,0,0,0,0-0.1c0,0,26.1-32.3,26.1-32.3h-11.7l-22.3,27.4h-14.4V19.8h-9.4v65.3
		h9.4v-30h14.4c0.4,0.5,15.9,21.7,17.9,23.9c0.6,0.6,1.2,1.2,1.8,1.8c0.8,0.8,1.7,1.5,2.7,2.1c1.4,0.9,2.9,1.6,4.5,1.9
		C245.8,85.2,247.6,85.2,249.3,85.2 M262.2,85.1h9.2V19.8h-9.2V85.1z M338.5,85.1l0-65.3h-8.7v51l-37.3-51H283v65.2h8.8V33.9
		l37.3,51.2L338.5,85.1L338.5,85.1z M355.7,41.4c-0.7-1.4-1.1-3-1-4.6c0.2-5.8,5.4-9.1,10.6-10c1.9-0.3,3.8-0.5,5.7-0.5
		c1.9,0,3.8,0.2,5.7,0.6c1.8,0.3,3.5,0.8,5.2,1.2c0.6,0.2,1.2,0.3,1.7,0.5c1.7,0.5,3.3,1.1,5,1.6l4.3-6.9c-2.3-1.2-4.8-2.1-7.3-2.8
		c-6.1-1.6-12.8-2.5-19.1-2c-5.5,0.5-11.3,2.1-15.3,6.1c-1.5,1.5-2.6,3.3-3.4,5.3c-1.4,3.6-1.7,7.6-0.9,11.3
		c0.9,4.4,3.5,8.2,7.5,10.4c2.5,1.4,5.2,2.3,8,2.9c4.9,1.1,10,1.6,14.9,2.9c4.1,1.1,8.7,3.1,10.3,7.4c0.4,1.1,0.6,2.3,0.5,3.5
		c-0.2,4.2-3.1,7.8-7,9.2c-2.9,1.1-6.1,1.2-9.2,1.2c-3.9-0.1-7.7-0.4-11.5-1.3c-3.3-0.7-6.5-1.7-9.7-2.9c-0.2,0.3-0.3,0.6-0.5,0.8
		c-1.2,2-2.3,4-3.6,5.9c0.3,0.2,0.6,0.3,1,0.4c1.7,0.7,3.6,1.2,5.4,1.8c7,2,13.8,3.2,21.1,2.9c4.5-0.2,9.1-0.8,13.2-2.9
		c1.2-0.6,2.3-1.4,3.3-2.3c3.9-3.5,5.8-8.4,5.7-13.6c0-4.6-1.7-9.1-5-12.3c-1.3-1.3-2.8-2.3-4.4-3.2c-6.2-3.3-13.4-3.5-20.1-4.9
		C362.7,46.4,357.8,45.4,355.7,41.4C355.7,41.5,355.7,41.5,355.7,41.4C355.7,41.5,355.7,41.4,355.7,41.4
		C355.7,41.4,355.7,41.4,355.7,41.4 M548.8,6.1c0-3.4-2.7-6.1-6.1-6.1s-6.1,2.7-6.1,6.1c0,3.4,2.7,6.1,6.1,6.1S548.8,9.5,548.8,6.1"
		/>
	<path d="M615.8,51.7c0-6.6-0.2-12-1.5-16.3c-1.4-4.3-3.4-7.7-6-10.2c-2.6-2.5-5.9-4.3-9.7-5.2c-3.7-0.9-8-1.4-12.8-1.4
		c-4.4,0-8.6,0.4-12.3,1.3c-3.8,0.9-7.1,2.6-9.9,5.2c-2.8,2.5-5,6.1-6.5,10.7c-1.5,4.5-2.3,10.4-2.3,17.5c0,1.4,0,2.7,0.1,3.9
		c0.1,2,0.5,5.3,1.4,8.9l0.6,2.2c0.2,0.5,0.3,1,0.5,1.5c1.6,4.5,3.8,8,6.7,10.4c2.9,2.5,6.4,4.1,10.5,5c3.9,0.8,8.4,1.2,13.3,1.2
		c4.6,0,9.1-0.4,13.1-1.2c1.6-0.3,3-0.7,4.4-1c1.7-0.5,5.1-1.6,7-2.9l-4.2-6.7l-0.8,0.3c-0.9,0.3-2.1,0.7-3.5,1.2
		c-1.4,0.4-3,0.9-4.6,1.3c-1.7,0.4-3.5,0.7-5.4,1c-1.9,0.3-3.8,0.4-5.7,0.4c-2.6,0-5-0.1-7.3-0.4c-3.4-0.5-7.5-1.7-10.5-4.3
		c-0.3-0.3-0.6-0.6-0.8-0.9l0,0c-1.7-1.7-2.9-4.5-3.6-6.8l-0.1-0.3c-0.1-0.2-0.1-0.4-0.1-0.5c-0.2-0.8-0.4-1.4-0.5-1.9
		c0-0.1,0-0.1,0-0.2c-0.1-0.5-0.1-0.7-0.1-0.7l0,0c-0.1-0.6-0.2-1.2-0.3-1.7c-0.2-1.7-0.3-3.9-0.4-5.9h51.5L615.8,51.7L615.8,51.7z
		 M564.4,47.5c0.3-4.9,1-8.8,2.1-11.6c1.2-2.9,2.7-5.1,4.5-6.5c1.8-1.4,4-2.3,6.4-2.6c2.6-0.4,5.4-0.5,8.3-0.5c3.4,0,6.4,0.3,9,0.8
		c2.5,0.5,5.4,1.5,7,3c1.7,1.5,3,3.8,3.9,6.7c0.9,2.8,1.5,6.4,1.7,10.8L564.4,47.5L564.4,47.5z"/>
	<rect x="538.3" y="19.8" width="9.2" height="65.3"/>
	<path d="M460.5,74.9c-0.9,0.3-2.1,0.7-3.5,1.2c-1.4,0.4-3,0.9-4.6,1.3c-1.7,0.4-3.5,0.7-5.4,1c-1.9,0.3-3.8,0.4-5.7,0.4
		c-2.6,0-5-0.1-7.3-0.4c-3.4-0.5-7.5-1.7-10.5-4.3c-1.7-1.7-3-3.9-4-6.9c-1.2-3.5-1.8-8.4-1.8-14.6c0-6.1,0.6-11,1.8-14.5
		c0.5-1.4,1-2.6,1.7-3.7c1.7-2.7,5.3-6.6,12.8-7.6c0.4,0,0.8-0.1,1.2-0.1c0.4,0,0.8-0.1,1.2-0.1c1.6-0.1,3.2-0.2,4.9-0.2
		c3.9,0,7.5,0.4,10.7,1.2c3.2,0.8,5.8,1.6,7.7,2.2l0.8,0.3l4.3-6.9l-1.1-0.5c-2-0.9-4.3-1.7-6.7-2.3l0,0c-0.1,0-0.1,0-0.2,0
		c-2.1-0.5-4.4-0.9-6.9-1.2c-24.4-3.3-32.6,5.8-32.6,5.8c-2.9,2.5-5.1,6-6.7,10.4c-1.5,4.4-2.3,10.2-2.3,17.2c0,7,0.8,12.8,2.3,17.2
		c1.6,4.5,3.8,8,6.7,10.4c2.9,2.5,6.4,4.1,10.5,5c4,0.8,8.4,1.2,13.4,1.2c4.6,0,9.1-0.4,13.1-1.2c1.6-0.3,3-0.7,4.4-1
		c1.7-0.5,5.1-1.6,7-2.9l-4.2-6.7L460.5,74.9z"/>
	<path d="M521.6,24.5c-3-2.4-6.5-4.1-10.5-4.9c-3.9-0.8-8.1-1.2-12.5-1.2c-4.4,0-8.6,0.4-12.5,1.2c-4,0.8-7.5,2.4-10.5,4.9
		c-3,2.4-5.4,6-7.1,10.4c-1.7,4.4-2.6,10.3-2.6,17.6c0,7.2,0.9,13.1,2.6,17.6c1.7,4.5,4.1,8,7.1,10.4c3,2.4,6.5,4.1,10.5,4.9
		c3.9,0.8,8.1,1.2,12.5,1.2s8.7-0.4,12.5-1.2c4-0.8,7.5-2.4,10.5-4.9c3-2.5,5.4-6,7.1-10.4c1.7-4.4,2.6-10.3,2.6-17.6
		c0-7.2-0.9-13.1-2.6-17.6C527,30.4,524.6,26.9,521.6,24.5z M521,63.8c-0.6,3-1.4,5.5-2.5,7.4c-1,1.9-2.2,3.3-3.6,4.3
		c-1.4,1-3,1.8-4.7,2.3c-1.7,0.5-3.6,0.8-5.5,0.9c-4.1,0.2-8.4,0.2-12.4,0c-1.9-0.1-3.8-0.4-5.5-0.9c-1.7-0.5-3.2-1.2-4.6-2.3
		c-1.4-1-2.6-2.5-3.6-4.4c-1-1.9-1.9-4.4-2.5-7.4c-0.6-3-0.9-6.9-0.9-11.3c0-6.6,0.7-11.8,2-15.4c1.3-3.5,3-6.1,5-7.7
		c2.1-1.6,4.5-2.5,7.2-2.8c2.9-0.3,6-0.4,9.1-0.4c3.1,0,6.1,0.1,9,0.4c2.7,0.3,5.1,1.2,7.2,2.8c2.1,1.6,3.8,4.2,5.1,7.7
		c1.3,3.6,2,8.8,2,15.4C521.9,56.9,521.6,60.7,521,63.8z"/>
	<polygon points="191.7,114.6 198.9,114.6 198.9,134.5 203.2,134.5 203.2,114.6 210.4,114.6 210.4,110.8 191.7,110.8 	"/>
	<path d="M228,110.2c-7.3,0-12.5,4.9-12.5,12.5c0,7.4,5.2,12.3,12.5,12.3c7.4-0.1,12.6-5.1,12.6-12.5
		C240.6,115,235.4,110.1,228,110.2z M228,131.3c-4.9,0-8.1-3.7-8.1-8.8c0-4.7,3.2-8.5,8.1-8.5c4.9,0,8.2,3.7,8.2,8.5
		C236.2,127.5,233,131.3,228,131.3z"/>
	<path d="M270.1,124.5h4.8v5.6c-1.5,0.8-3.4,1.2-5.5,1.2c-4.9,0-8.1-3.7-8.1-8.8c0-4.7,3.2-8.5,8.1-8.5c2.4,0,4.7,0.8,6.2,2.3
		l3.1-3.1c-2.5-2.2-5.7-3-9.3-3c-7.3,0-12.5,4.9-12.5,12.5c0,7.4,5.2,12.3,12.5,12.3c3.6,0,6.9-0.8,9.8-2.3v-12.1h-9.1V124.5z"/>
	<path d="M12.3,131.3c-4.9,0-8.1-3.7-8.1-8.8c0-4.7,3.2-8.5,8.1-8.5c1.6,0,3.2,0.5,5,2.3l3.3-2.4c-2.3-2.7-5.1-3.7-8.3-3.7
		c-7.3,0-12.5,4.9-12.5,12.5c0,7.4,5.2,12.3,12.5,12.3c3.5,0,6.7-1.3,8.8-4.2l-3.5-2.5C16.1,130.4,14.3,131.3,12.3,131.3z"/>
	<path d="M120.1,117.1c0-2.2,1.9-3,3.9-3c1.6,0,3.2,0.6,4.1,1.9l3.1-3.2c-1.8-1.7-4.3-2.4-6.8-2.4c-4.4,0-8.7,2.3-8.7,7.2
		c0,8.5,11.2,5.5,11.2,10.7c0,2.2-2.2,3.2-4.1,3.2c-1.9,0-3.6-0.9-4.7-2.5l-3.2,3.1c1.9,2.3,4.8,3.2,7.8,3.2c4.6,0,8.7-2.5,8.7-7.6
		C131.4,119.1,120.1,121.8,120.1,117.1z"/>
	<polygon points="103.6,128.4 103.5,128.4 92,110.8 86.5,110.8 86.5,134.5 90.7,134.5 90.7,116.3 90.7,116.3 102.4,134.5 
		107.8,134.5 107.8,110.8 103.6,110.8 	"/>
	<path d="M73.6,125.7c0,2.3-1.3,5.4-5.3,5.4c-4,0-5.3-3.1-5.3-5.4v-14.8h-4.2v15c0,5.7,4.1,9.3,9.5,9.3c5.4,0,9.5-3.6,9.5-9.3v-15
		h-4.2L73.6,125.7L73.6,125.7z"/>
	<polygon points="143.5,124.2 154.3,124.2 154.3,120.4 143.5,120.4 143.5,114.6 154.9,114.6 154.9,110.8 139.3,110.8 139.3,134.5 
		155.5,134.5 155.5,130.7 143.5,130.7 	"/>
	<polygon points="167.4,110.8 163.2,110.8 163.2,134.5 177.5,134.5 177.5,130.7 167.4,130.7 	"/>
	<path d="M38.7,110.2c-7.3,0-12.5,4.9-12.5,12.5c0,7.4,5.2,12.3,12.5,12.3c7.4-0.1,12.6-5.1,12.6-12.5
		C51.3,115,46.1,110.1,38.7,110.2z M38.7,131.3c-4.9,0-8.1-3.7-8.1-8.8c0-4.7,3.2-8.5,8.1-8.5c4.9,0,8.2,3.7,8.2,8.5
		C46.9,127.5,43.7,131.3,38.7,131.3z"/>
	<rect x="564.8" y="110.8" width="4.2" height="23.7"/>
	<polygon points="551.9,128.4 551.8,128.4 540.3,110.8 534.8,110.8 534.8,134.5 539,134.5 539,116.3 539,116.3 550.7,134.5 
		556.1,134.5 556.1,110.8 551.9,110.8 	"/>
	<path d="M514.8,110.8l-10.3,23.7h4.7l2.1-5.4h10.3l2.2,5.4h4.8l-10.2-23.7H514.8z M512.8,125.5l3.7-9.6l3.6,9.6H512.8z"/>
	<path d="M605.2,117.1c0-2.2,1.9-3,3.9-3c1.6,0,3.2,0.6,4.1,1.9l3.1-3.2c-1.8-1.7-4.3-2.4-6.8-2.4c-4.4,0-8.7,2.3-8.7,7.2
		c0,8.5,11.2,5.5,11.2,10.7c0,2.2-2.2,3.2-4.1,3.2c-1.9,0-3.6-0.9-4.7-2.5l-3.2,3.1c1.9,2.3,4.8,3.2,7.8,3.2c4.6,0,8.7-2.5,8.7-7.6
		C616.4,119.1,605.2,121.8,605.2,117.1z"/>
	<polygon points="581.9,124.2 592.7,124.2 592.7,120.4 581.9,120.4 581.9,114.6 593.3,114.6 593.3,110.8 577.7,110.8 577.7,134.5 
		593.9,134.5 593.9,130.7 581.9,130.7 	"/>
	<path d="M493.6,110.8h-8v23.7h4.2v-9.8h3c5,0,9.5-1.1,9.5-7C502.4,112.4,498.2,110.8,493.6,110.8z M492.4,121.1h-2.5v-6.6h3
		c2.3,0,5,0.4,5,3.3C497.9,120.9,494.8,121.1,492.4,121.1z"/>
	<path d="M304.7,117.6c0-5.3-4.3-6.8-8.8-6.8h-8.2v23.7h4.2v-10h3.1l5.5,10h5.1l-6.3-10.5C302.8,123.5,304.7,121,304.7,117.6z
		 M291.9,120.8v-6.4h3.6c2.2,0,4.8,0.3,4.8,3.1c0,3.1-2.8,3.3-5.1,3.3H291.9z"/>
	<path d="M343.8,110.8l-10.3,23.7h4.7l2.1-5.4h10.3l2.2,5.4h4.8l-10.2-23.7H343.8z M341.8,125.5l3.7-9.6l3.6,9.6H341.8z"/>
	<polygon points="464.1,127.4 457.7,110.8 451.3,110.8 451.3,134.5 455.3,134.5 455.3,114.8 455.4,114.8 462.6,134.5 465.5,134.5 
		472.7,114.8 472.8,114.8 472.8,134.5 476.8,134.5 476.8,110.8 470.4,110.8 	"/>
	<polygon points="358.3,114.6 365.6,114.6 365.6,134.5 369.8,134.5 369.8,114.6 377,114.6 377,110.8 358.3,110.8 	"/>
	<polygon points="316.5,124.2 327.3,124.2 327.3,120.4 316.5,120.4 316.5,114.6 327.9,114.6 327.9,110.8 312.3,110.8 312.3,134.5 
		328.5,134.5 328.5,130.7 316.5,130.7 	"/>
	<path d="M431.1,110.2c-7.3,0-12.5,4.9-12.5,12.5c0,7.4,5.2,12.3,12.5,12.3c7.4-0.1,12.6-5.1,12.6-12.5
		C443.7,115,438.5,110.1,431.1,110.2z M431.1,131.3c-4.9,0-8.1-3.7-8.1-8.8c0-4.7,3.2-8.5,8.1-8.5c4.9,0,8.2,3.7,8.2,8.5
		C439.3,127.5,436.1,131.3,431.1,131.3z"/>
	<path d="M404.7,131.3c-4.9,0-8.1-3.7-8.1-8.8c0-4.7,3.2-8.5,8.1-8.5c1.6,0,3.2,0.5,5,2.3l3.3-2.4c-2.3-2.7-5.1-3.7-8.3-3.7
		c-7.3,0-12.5,4.9-12.5,12.5c0,7.4,5.2,12.3,12.5,12.3c3.5,0,6.7-1.3,8.8-4.2l-3.5-2.5C408.5,130.4,406.7,131.3,404.7,131.3z"/>
</g>
</svg>
